<svg width="104" height="104" viewBox="0 0 104 104" fill="none" xmlns="http://www.w3.org/2000/svg">
<circle cx="52" cy="52" r="50" fill="white" stroke="#E0E1E5" stroke-width="3"/>
<g clip-path="url(#clip0_23_14)">
<path d="M52.0109 40.1465C45.1967 40.1465 39.7002 45.6572 39.7002 52.4893C39.7002 59.3213 45.1967 64.832 52.0109 64.832C58.8252 64.832 64.3217 59.3213 64.3217 52.4893C64.3217 45.6572 58.8252 40.1465 52.0109 40.1465ZM52.0109 60.5137C47.6074 60.5137 44.0074 56.915 44.0074 52.4893C44.0074 48.0635 47.5967 44.4648 52.0109 44.4648C56.4252 44.4648 60.0145 48.0635 60.0145 52.4893C60.0145 56.915 56.4145 60.5137 52.0109 60.5137ZM67.6967 39.6416C67.6967 41.2422 66.4109 42.5205 64.8252 42.5205C63.2288 42.5205 61.9538 41.2314 61.9538 39.6416C61.9538 38.0518 63.2395 36.7627 64.8252 36.7627C66.4109 36.7627 67.6967 38.0518 67.6967 39.6416ZM75.8502 42.5635C75.6681 38.707 74.7895 35.291 71.9717 32.4766C69.1645 29.6621 65.7574 28.7812 61.9109 28.5879C57.9467 28.3623 46.0645 28.3623 42.1002 28.5879C38.2645 28.7705 34.8574 29.6514 32.0395 32.4658C29.2217 35.2803 28.3538 38.6963 28.1609 42.5527C27.9359 46.5273 27.9359 58.4404 28.1609 62.415C28.3431 66.2715 29.2217 69.6875 32.0395 72.502C34.8574 75.3164 38.2538 76.1973 42.1002 76.3906C46.0645 76.6162 57.9467 76.6162 61.9109 76.3906C65.7574 76.208 69.1645 75.3271 71.9717 72.502C74.7788 69.6875 75.6574 66.2715 75.8502 62.415C76.0752 58.4404 76.0752 46.5381 75.8502 42.5635ZM70.7288 66.6797C69.8931 68.7852 68.2752 70.4072 66.1645 71.2559C63.0038 72.5127 55.5038 72.2227 52.0109 72.2227C48.5181 72.2227 41.0074 72.502 37.8574 71.2559C35.7574 70.418 34.1395 68.7959 33.2931 66.6797C32.0395 63.5107 32.3288 55.9912 32.3288 52.4893C32.3288 48.9873 32.0502 41.457 33.2931 38.2988C34.1288 36.1934 35.7467 34.5713 37.8574 33.7227C41.0181 32.4658 48.5181 32.7559 52.0109 32.7559C55.5038 32.7559 63.0145 32.4766 66.1645 33.7227C68.2645 34.5605 69.8824 36.1826 70.7288 38.2988C71.9824 41.4678 71.6931 48.9873 71.6931 52.4893C71.6931 55.9912 71.9824 63.5215 70.7288 66.6797Z" fill="#1B191A"/>
</g>
<defs>
<clipPath id="clip0_23_14">
<rect width="48" height="55" fill="white" transform="translate(28 25)"/>
</clipPath>
</defs>
</svg>
