<svg width="104" height="104" viewBox="0 0 104 104" fill="none" xmlns="http://www.w3.org/2000/svg">
<circle cx="52" cy="52" r="50" fill="white" stroke="#E0E1E5" stroke-width="3"/>
<g clip-path="url(#clip0_23_6)">
<path d="M29 30.4598C29 28.8773 29.5631 27.5717 30.6892 26.5432C31.8153 25.5145 33.2793 25.0002 35.0811 25.0002C36.8507 25.0002 38.2825 25.5066 39.3764 26.5194C40.5026 27.5639 41.0656 28.9248 41.0656 30.6022C41.0656 32.1214 40.5187 33.3874 39.4247 34.4002C38.2986 35.4447 36.8185 35.9669 34.9846 35.9669H34.9363C33.1667 35.9669 31.7349 35.4447 30.6409 34.4002C29.547 33.3558 29 32.0423 29 30.4598ZM29.6274 72.0001V40.2871H40.3417V72.0001H29.6274ZM46.278 72.0001H56.9923V54.2921C56.9923 53.1843 57.121 52.3298 57.3784 51.7285C57.8288 50.6524 58.5125 49.7424 59.4295 48.9987C60.3465 48.2549 61.4968 47.883 62.8803 47.883C66.4839 47.883 68.2857 50.2726 68.2857 55.0517V72.0001H79V53.8174C79 49.1332 77.8739 45.5805 75.6216 43.1593C73.3694 40.7381 70.3932 39.5275 66.6931 39.5275C62.5425 39.5275 59.3089 41.284 56.9923 44.7972V44.8921H56.944L56.9923 44.7972V40.2871H46.278C46.3423 41.2998 46.3745 44.449 46.3745 49.7345C46.3745 55.02 46.3423 62.4419 46.278 72.0001Z" fill="#1B191A"/>
</g>
<defs>
<clipPath id="clip0_23_6">
<rect width="50" height="47" fill="white" transform="translate(29 25)"/>
</clipPath>
</defs>
</svg>
