<svg width="104" height="104" viewBox="0 0 104 104" fill="none" xmlns="http://www.w3.org/2000/svg">
<circle cx="52" cy="52" r="50" fill="white" stroke="#E0E1E5" stroke-width="3"/>
<g clip-path="url(#clip0_23_10)">
<path d="M73.9223 75.3164L55.7323 48.8759L72.1388 29.7197C72.3812 29.437 72.1803 29 71.8091 29H68.7984L53.9696 46.3141L42.4073 29.5067C42.1887 29.1891 41.8291 29 41.4444 29H29.3735C29.023 29 28.8161 29.3941 29.0151 29.6836L46.4749 55.0648L29.1616 75.2803C28.9192 75.563 29.1201 76 29.4913 76H32.502L48.2376 57.6272L60.5283 75.4933C60.7469 75.8109 61.1065 76 61.4912 76H73.5639C73.9144 76 74.1207 75.6059 73.9217 75.3164H73.9223ZM68.5108 72.9456H63.2679C62.8484 72.9456 62.4552 72.74 62.2159 72.3942L50.3037 55.2141L48.5325 52.6616L34.3948 32.2729C34.3307 32.1805 34.3966 32.0538 34.509 32.0538H39.7531C40.1726 32.0538 40.5658 32.2594 40.8051 32.6052L51.9474 48.6745L53.7174 51.2283L68.625 72.7271C68.6891 72.8195 68.6232 72.9462 68.5108 72.9462V72.9456Z" fill="#1B191A"/>
</g>
<defs>
<clipPath id="clip0_23_10">
<rect width="45" height="47" fill="white" transform="translate(29 29)"/>
</clipPath>
</defs>
</svg>
